<svg width="271" height="30" viewBox="0 0 271 30" fill="none" xmlns="http://www.w3.org/2000/svg">
<mask id="path-1-outside-1_50_5973" maskUnits="userSpaceOnUse" x="-0.397949" y="-1" width="273" height="32" fill="black">
<rect fill="white" x="-0.397949" y="-1" width="273" height="32"/>
<path d="M0.951752 1.42773H7.66855L25.1656 16.123L25.1842 1.42773H29.2662V29H22.5494L5.03378 14.3604V29H0.951752V1.42773ZM36.317 1.42773H47.0602L47.0416 29H36.317V1.42773ZM54.1295 1.42773H64.8541V12.9873H72.7769V1.42773H83.5201L83.5016 29H72.7769V17.2363H64.8541V29H54.1295V1.42773ZM88.9566 15.1582C88.9566 13.0677 89.2906 11.1566 89.9586 9.4248C90.6266 7.68066 91.6223 6.18392 92.9459 4.93457C94.2695 3.68522 95.9208 2.71419 97.9 2.02148C99.8792 1.32878 102.18 0.982422 104.802 0.982422C107.425 0.982422 109.726 1.32878 111.705 2.02148C113.684 2.71419 115.335 3.68522 116.659 4.93457C117.982 6.18392 118.978 7.68066 119.646 9.4248C120.314 11.1566 120.648 13.0677 120.648 15.1582C120.648 17.2734 120.314 19.2093 119.646 20.9658C118.978 22.7223 117.982 24.2253 116.659 25.4746C115.335 26.724 113.684 27.695 111.705 28.3877C109.726 29.0804 107.425 29.4268 104.802 29.4268C102.18 29.4268 99.8792 29.0804 97.9 28.3877C95.9208 27.695 94.2695 26.724 92.9459 25.4746C91.6223 24.2253 90.6266 22.7223 89.9586 20.9658C89.2906 19.2093 88.9566 17.2734 88.9566 15.1582ZM104.802 25.5859C105.545 25.5859 106.2 25.4561 106.769 25.1963C107.338 24.9365 107.814 24.4294 108.198 23.6748C108.581 22.9202 108.872 21.8626 109.07 20.502C109.268 19.1413 109.367 17.36 109.367 15.1582C109.367 12.9811 109.268 11.2184 109.07 9.87012C108.872 8.52181 108.581 7.47656 108.198 6.73438C107.814 5.99219 107.338 5.49121 106.769 5.23145C106.2 4.97168 105.545 4.8418 104.802 4.8418C104.06 4.8418 103.398 4.97168 102.817 5.23145C102.248 5.49121 101.772 5.99219 101.388 6.73438C101.005 7.47656 100.714 8.52181 100.516 9.87012C100.318 11.2184 100.219 12.9811 100.219 15.1582C100.219 17.36 100.318 19.1413 100.516 20.502C100.714 21.8626 101.005 22.9202 101.388 23.6748C101.772 24.4294 102.248 24.9365 102.817 25.1963C103.398 25.4561 104.06 25.5859 104.802 25.5859ZM126.085 1.42773H132.801L150.298 16.123L150.317 1.42773H154.399V29H147.682L130.167 14.3604V29H126.085V1.42773ZM161.45 1.42773H172.174V17.4033L184.105 1.42773H189.467L180.672 13.2656L192.195 29.0186H180.116L173.956 20.3535L172.174 22.8027V29H161.45V1.42773ZM195.813 1.42773H206.556L206.538 29H195.813V1.42773ZM218.468 5.6582H210.601V1.40918H237.06V5.6582H229.193V29H218.468V5.6582ZM248.712 8.38574L245.521 1.42773H256.821L270.329 29.0186H258.212L256.171 24.6025H245.298L243.276 29.0186H238.582L248.712 8.38574ZM254.223 20.3535L250.735 12.7832L247.265 20.3535H254.223Z"/>
</mask>
<path d="M0.951752 1.42773H7.66855L25.1656 16.123L25.1842 1.42773H29.2662V29H22.5494L5.03378 14.3604V29H0.951752V1.42773ZM36.317 1.42773H47.0602L47.0416 29H36.317V1.42773ZM54.1295 1.42773H64.8541V12.9873H72.7769V1.42773H83.5201L83.5016 29H72.7769V17.2363H64.8541V29H54.1295V1.42773ZM88.9566 15.1582C88.9566 13.0677 89.2906 11.1566 89.9586 9.4248C90.6266 7.68066 91.6223 6.18392 92.9459 4.93457C94.2695 3.68522 95.9208 2.71419 97.9 2.02148C99.8792 1.32878 102.18 0.982422 104.802 0.982422C107.425 0.982422 109.726 1.32878 111.705 2.02148C113.684 2.71419 115.335 3.68522 116.659 4.93457C117.982 6.18392 118.978 7.68066 119.646 9.4248C120.314 11.1566 120.648 13.0677 120.648 15.1582C120.648 17.2734 120.314 19.2093 119.646 20.9658C118.978 22.7223 117.982 24.2253 116.659 25.4746C115.335 26.724 113.684 27.695 111.705 28.3877C109.726 29.0804 107.425 29.4268 104.802 29.4268C102.18 29.4268 99.8792 29.0804 97.9 28.3877C95.9208 27.695 94.2695 26.724 92.9459 25.4746C91.6223 24.2253 90.6266 22.7223 89.9586 20.9658C89.2906 19.2093 88.9566 17.2734 88.9566 15.1582ZM104.802 25.5859C105.545 25.5859 106.2 25.4561 106.769 25.1963C107.338 24.9365 107.814 24.4294 108.198 23.6748C108.581 22.9202 108.872 21.8626 109.07 20.502C109.268 19.1413 109.367 17.36 109.367 15.1582C109.367 12.9811 109.268 11.2184 109.07 9.87012C108.872 8.52181 108.581 7.47656 108.198 6.73438C107.814 5.99219 107.338 5.49121 106.769 5.23145C106.2 4.97168 105.545 4.8418 104.802 4.8418C104.06 4.8418 103.398 4.97168 102.817 5.23145C102.248 5.49121 101.772 5.99219 101.388 6.73438C101.005 7.47656 100.714 8.52181 100.516 9.87012C100.318 11.2184 100.219 12.9811 100.219 15.1582C100.219 17.36 100.318 19.1413 100.516 20.502C100.714 21.8626 101.005 22.9202 101.388 23.6748C101.772 24.4294 102.248 24.9365 102.817 25.1963C103.398 25.4561 104.06 25.5859 104.802 25.5859ZM126.085 1.42773H132.801L150.298 16.123L150.317 1.42773H154.399V29H147.682L130.167 14.3604V29H126.085V1.42773ZM161.45 1.42773H172.174V17.4033L184.105 1.42773H189.467L180.672 13.2656L192.195 29.0186H180.116L173.956 20.3535L172.174 22.8027V29H161.45V1.42773ZM195.813 1.42773H206.556L206.538 29H195.813V1.42773ZM218.468 5.6582H210.601V1.40918H237.06V5.6582H229.193V29H218.468V5.6582ZM248.712 8.38574L245.521 1.42773H256.821L270.329 29.0186H258.212L256.171 24.6025H245.298L243.276 29.0186H238.582L248.712 8.38574ZM254.223 20.3535L250.735 12.7832L247.265 20.3535H254.223Z" fill="#FEB030"/>
<path d="M0.951752 1.42773V0.427734H-0.0482483V1.42773H0.951752ZM7.66855 1.42773L8.31168 0.661982L8.03278 0.427734H7.66855V1.42773ZM25.1656 16.123L24.5225 16.8888L26.1629 18.2666L26.1656 16.1243L25.1656 16.123ZM25.1842 1.42773V0.427734H24.1854L24.1842 1.42647L25.1842 1.42773ZM29.2662 1.42773H30.2662V0.427734H29.2662V1.42773ZM29.2662 29V30H30.2662V29H29.2662ZM22.5494 29L21.9081 29.7673L22.1865 30H22.5494V29ZM5.03378 14.3604L5.67509 13.5931L4.03378 12.2213V14.3604H5.03378ZM5.03378 29V30H6.03378V29H5.03378ZM0.951752 29H-0.0482483V30H0.951752V29ZM0.951752 2.42773H7.66855V0.427734H0.951752V2.42773ZM7.02541 2.19349L24.5225 16.8888L25.8088 15.3573L8.31168 0.661982L7.02541 2.19349ZM26.1656 16.1243L26.1842 1.429L24.1842 1.42647L24.1656 16.1218L26.1656 16.1243ZM25.1842 2.42773H29.2662V0.427734H25.1842V2.42773ZM28.2662 1.42773V29H30.2662V1.42773H28.2662ZM29.2662 28H22.5494V30H29.2662V28ZM23.1907 28.2327L5.67509 13.5931L4.39248 15.1276L21.9081 29.7673L23.1907 28.2327ZM4.03378 14.3604V29H6.03378V14.3604H4.03378ZM5.03378 28H0.951752V30H5.03378V28ZM1.95175 29V1.42773H-0.0482483V29H1.95175ZM36.317 1.42773V0.427734H35.317V1.42773H36.317ZM47.0602 1.42773L48.0602 1.42841L48.0608 0.427734H47.0602V1.42773ZM47.0416 29V30H48.0409L48.0416 29.0007L47.0416 29ZM36.317 29H35.317V30H36.317V29ZM36.317 2.42773H47.0602V0.427734H36.317V2.42773ZM46.0602 1.42706L46.0416 28.9993L48.0416 29.0007L48.0602 1.42841L46.0602 1.42706ZM47.0416 28H36.317V30H47.0416V28ZM37.317 29V1.42773H35.317V29H37.317ZM54.1295 1.42773V0.427734H53.1295V1.42773H54.1295ZM64.8541 1.42773H65.8541V0.427734H64.8541V1.42773ZM64.8541 12.9873H63.8541V13.9873H64.8541V12.9873ZM72.7769 12.9873V13.9873H73.7769V12.9873H72.7769ZM72.7769 1.42773V0.427734H71.7769V1.42773H72.7769ZM83.5201 1.42773L84.5201 1.42841L84.5208 0.427734H83.5201V1.42773ZM83.5016 29V30H84.5009L84.5016 29.0007L83.5016 29ZM72.7769 29H71.7769V30H72.7769V29ZM72.7769 17.2363H73.7769V16.2363H72.7769V17.2363ZM64.8541 17.2363V16.2363H63.8541V17.2363H64.8541ZM64.8541 29V30H65.8541V29H64.8541ZM54.1295 29H53.1295V30H54.1295V29ZM54.1295 2.42773H64.8541V0.427734H54.1295V2.42773ZM63.8541 1.42773V12.9873H65.8541V1.42773H63.8541ZM64.8541 13.9873H72.7769V11.9873H64.8541V13.9873ZM73.7769 12.9873V1.42773H71.7769V12.9873H73.7769ZM72.7769 2.42773H83.5201V0.427734H72.7769V2.42773ZM82.5201 1.42706L82.5016 28.9993L84.5016 29.0007L84.5201 1.42841L82.5201 1.42706ZM83.5016 28H72.7769V30H83.5016V28ZM73.7769 29V17.2363H71.7769V29H73.7769ZM72.7769 16.2363H64.8541V18.2363H72.7769V16.2363ZM63.8541 17.2363V29H65.8541V17.2363H63.8541ZM64.8541 28H54.1295V30H64.8541V28ZM55.1295 29V1.42773H53.1295V29H55.1295ZM89.9586 9.4248L90.8916 9.78468L90.8924 9.78245L89.9586 9.4248ZM119.646 9.4248L118.712 9.78245L118.713 9.78468L119.646 9.4248ZM119.646 20.9658L118.711 20.6104L119.646 20.9658ZM116.659 25.4746L115.972 24.7474L116.659 25.4746ZM109.07 9.87012L108.081 10.0154L109.07 9.87012ZM102.817 5.23145L102.409 4.31841L102.402 4.32176L102.817 5.23145ZM100.516 20.502L99.5266 20.6459L100.516 20.502ZM101.388 23.6748L100.497 24.1279L101.388 23.6748ZM102.817 25.1963L102.402 26.106L102.409 26.1093L102.817 25.1963ZM89.9566 15.1582C89.9566 13.1753 90.2731 11.3881 90.8916 9.78468L89.0256 9.06493C88.3081 10.9251 87.9566 12.9601 87.9566 15.1582H89.9566ZM90.8924 9.78245C91.5082 8.17472 92.4208 6.80533 93.6323 5.66177L92.2595 4.20737C90.8238 5.56251 89.7449 7.1866 89.0247 9.06716L90.8924 9.78245ZM93.6323 5.66177C94.8393 4.52244 96.3637 3.61866 98.2303 2.96534L97.5696 1.07763C95.4779 1.80972 93.6996 2.848 92.2595 4.20737L93.6323 5.66177ZM98.2303 2.96534C100.081 2.31778 102.265 1.98242 104.802 1.98242V-0.0175781C102.094 -0.0175781 99.6778 0.339774 97.5696 1.07763L98.2303 2.96534ZM104.802 1.98242C107.339 1.98242 109.524 2.31778 111.374 2.96534L112.035 1.07763C109.927 0.339774 107.51 -0.0175781 104.802 -0.0175781V1.98242ZM111.374 2.96534C113.241 3.61866 114.765 4.52244 115.972 5.66177L117.345 4.20737C115.905 2.848 114.127 1.80972 112.035 1.07763L111.374 2.96534ZM115.972 5.66177C117.184 6.80533 118.097 8.17472 118.712 9.78245L120.58 9.06716C119.86 7.1866 118.781 5.56251 117.345 4.20737L115.972 5.66177ZM118.713 9.78468C119.332 11.3881 119.648 13.1753 119.648 15.1582H121.648C121.648 12.9601 121.297 10.9251 120.579 9.06493L118.713 9.78468ZM119.648 15.1582C119.648 17.1671 119.331 18.9807 118.711 20.6104L120.581 21.3213C121.297 19.4379 121.648 17.3798 121.648 15.1582H119.648ZM118.711 20.6104C118.095 22.2305 117.183 23.6051 115.972 24.7474L117.345 26.2018C118.782 24.8455 119.861 23.2141 120.581 21.3213L118.711 20.6104ZM115.972 24.7474C114.765 25.8867 113.241 26.7905 111.374 27.4438L112.035 29.3316C114.127 28.5995 115.905 27.5612 117.345 26.2018L115.972 24.7474ZM111.374 27.4438C109.524 28.0914 107.339 28.4268 104.802 28.4268V30.4268C107.51 30.4268 109.927 30.0694 112.035 29.3316L111.374 27.4438ZM104.802 28.4268C102.265 28.4268 100.081 28.0914 98.2303 27.4438L97.5696 29.3316C99.6778 30.0694 102.094 30.4268 104.802 30.4268V28.4268ZM98.2303 27.4438C96.3637 26.7905 94.8393 25.8867 93.6323 24.7474L92.2595 26.2018C93.6996 27.5612 95.4779 28.5995 97.5696 29.3316L98.2303 27.4438ZM93.6323 24.7474C92.4221 23.6051 91.5094 22.2305 90.8933 20.6104L89.0239 21.3213C89.7437 23.2141 90.8225 24.8455 92.2595 26.2018L93.6323 24.7474ZM90.8933 20.6104C90.2736 18.9807 89.9566 17.1671 89.9566 15.1582H87.9566C87.9566 17.3798 88.3077 19.4379 89.0239 21.3213L90.8933 20.6104ZM104.802 26.5859C105.661 26.5859 106.463 26.4353 107.184 26.106L106.354 24.2866C105.937 24.4768 105.428 24.5859 104.802 24.5859V26.5859ZM107.184 26.106C108.021 25.7238 108.639 25.0132 109.089 24.1279L107.306 23.2218C106.989 23.8455 106.655 24.1492 106.354 24.2866L107.184 26.106ZM109.089 24.1279C109.543 23.2348 109.854 22.0558 110.06 20.6459L108.08 20.358C107.89 21.6695 107.619 22.6057 107.306 23.2218L109.089 24.1279ZM110.06 20.6459C110.267 19.218 110.367 17.3833 110.367 15.1582H108.367C108.367 17.3368 108.268 19.0646 108.08 20.358L110.06 20.6459ZM110.367 15.1582C110.367 12.9575 110.267 11.1409 110.059 9.72488L108.081 10.0154C108.268 11.2959 108.367 13.0047 108.367 15.1582H110.367ZM110.059 9.72488C109.854 8.32712 109.542 7.15817 109.086 6.27536L107.309 7.19339C107.62 7.79495 107.89 8.7165 108.081 10.0154L110.059 9.72488ZM109.086 6.27536C108.634 5.40084 108.016 4.7015 107.184 4.32176L106.354 6.14113C106.66 6.28092 106.994 6.58354 107.309 7.19339L109.086 6.27536ZM107.184 4.32176C106.463 3.99242 105.661 3.8418 104.802 3.8418V5.8418C105.428 5.8418 105.937 5.95094 106.354 6.14113L107.184 4.32176ZM104.802 3.8418C103.943 3.8418 103.138 3.9926 102.409 4.31844L103.225 6.14445C103.658 5.95076 104.178 5.8418 104.802 5.8418V3.8418ZM102.402 4.32176C101.57 4.7015 100.952 5.40084 100.5 6.27536L102.277 7.19339C102.592 6.58354 102.926 6.28092 103.232 6.14113L102.402 4.32176ZM100.5 6.27536C100.044 7.15817 99.732 8.32712 99.5268 9.72488L101.506 10.0154C101.696 8.7165 101.966 7.79495 102.277 7.19339L100.5 6.27536ZM99.5268 9.72488C99.3189 11.1409 99.2193 12.9575 99.2193 15.1582H101.219C101.219 13.0047 101.318 11.2959 101.506 10.0154L99.5268 9.72488ZM99.2193 15.1582C99.2193 17.3833 99.3189 19.218 99.5266 20.6459L101.506 20.358C101.318 19.0646 101.219 17.3368 101.219 15.1582H99.2193ZM99.5266 20.6459C99.7317 22.0558 100.043 23.2348 100.497 24.1279L102.28 23.2218C101.967 22.6057 101.697 21.6695 101.506 20.358L99.5266 20.6459ZM100.497 24.1279C100.947 25.0132 101.565 25.7238 102.402 26.106L103.232 24.2866C102.931 24.1492 102.597 23.8455 102.28 23.2218L100.497 24.1279ZM102.409 26.1093C103.138 26.4351 103.943 26.5859 104.802 26.5859V24.5859C104.178 24.5859 103.658 24.477 103.225 24.2833L102.409 26.1093ZM126.085 1.42773V0.427734H125.085V1.42773H126.085ZM132.801 1.42773L133.444 0.661982L133.166 0.427734H132.801V1.42773ZM150.298 16.123L149.655 16.8888L151.296 18.2666L151.298 16.1243L150.298 16.123ZM150.317 1.42773V0.427734H149.318L149.317 1.42647L150.317 1.42773ZM154.399 1.42773H155.399V0.427734H154.399V1.42773ZM154.399 29V30H155.399V29H154.399ZM147.682 29L147.041 29.7673L147.319 30H147.682V29ZM130.167 14.3604L130.808 13.5931L129.167 12.2213V14.3604H130.167ZM130.167 29V30H131.167V29H130.167ZM126.085 29H125.085V30H126.085V29ZM126.085 2.42773H132.801V0.427734H126.085V2.42773ZM132.158 2.19349L149.655 16.8888L150.942 15.3573L133.444 0.661982L132.158 2.19349ZM151.298 16.1243L151.317 1.429L149.317 1.42647L149.298 16.1218L151.298 16.1243ZM150.317 2.42773H154.399V0.427734H150.317V2.42773ZM153.399 1.42773V29H155.399V1.42773H153.399ZM154.399 28H147.682V30H154.399V28ZM148.324 28.2327L130.808 13.5931L129.525 15.1276L147.041 29.7673L148.324 28.2327ZM129.167 14.3604V29H131.167V14.3604H129.167ZM130.167 28H126.085V30H130.167V28ZM127.085 29V1.42773H125.085V29H127.085ZM161.45 1.42773V0.427734H160.45V1.42773H161.45ZM172.174 1.42773H173.174V0.427734H172.174V1.42773ZM172.174 17.4033H171.174V20.4136L172.976 18.0017L172.174 17.4033ZM184.105 1.42773V0.427734H183.604L183.304 0.829373L184.105 1.42773ZM189.467 1.42773L190.27 2.02411L191.456 0.427734H189.467V1.42773ZM180.672 13.2656L179.87 12.6693L179.43 13.261L179.865 13.856L180.672 13.2656ZM192.195 29.0186V30.0186H194.165L193.002 28.4282L192.195 29.0186ZM180.116 29.0186L179.301 29.598L179.6 30.0186H180.116V29.0186ZM173.956 20.3535L174.771 19.7741L173.965 18.6406L173.147 19.7653L173.956 20.3535ZM172.174 22.8027L171.366 22.2146L171.174 22.4776V22.8027H172.174ZM172.174 29V30H173.174V29H172.174ZM161.45 29H160.45V30H161.45V29ZM161.45 2.42773H172.174V0.427734H161.45V2.42773ZM171.174 1.42773V17.4033H173.174V1.42773H171.174ZM172.976 18.0017L184.906 2.0261L183.304 0.829373L171.373 16.805L172.976 18.0017ZM184.105 2.42773H189.467V0.427734H184.105V2.42773ZM188.665 0.831364L179.87 12.6693L181.475 13.862L190.27 2.02411L188.665 0.831364ZM179.865 13.856L191.388 29.6089L193.002 28.4282L181.48 12.6753L179.865 13.856ZM192.195 28.0186H180.116V30.0186H192.195V28.0186ZM180.931 28.4391L174.771 19.7741L173.141 20.9329L179.301 29.598L180.931 28.4391ZM173.147 19.7653L171.366 22.2146L172.983 23.3909L174.764 20.9417L173.147 19.7653ZM171.174 22.8027V29H173.174V22.8027H171.174ZM172.174 28H161.45V30H172.174V28ZM162.45 29V1.42773H160.45V29H162.45ZM195.813 1.42773V0.427734H194.813V1.42773H195.813ZM206.556 1.42773L207.556 1.42841L207.557 0.427734H206.556V1.42773ZM206.538 29V30H207.537L207.538 29.0007L206.538 29ZM195.813 29H194.813V30H195.813V29ZM195.813 2.42773H206.556V0.427734H195.813V2.42773ZM205.556 1.42706L205.538 28.9993L207.538 29.0007L207.556 1.42841L205.556 1.42706ZM206.538 28H195.813V30H206.538V28ZM196.813 29V1.42773H194.813V29H196.813ZM218.468 5.6582H219.468V4.6582H218.468V5.6582ZM210.601 5.6582H209.601V6.6582H210.601V5.6582ZM210.601 1.40918V0.40918H209.601V1.40918H210.601ZM237.06 1.40918H238.06V0.40918H237.06V1.40918ZM237.06 5.6582V6.6582H238.06V5.6582H237.06ZM229.193 5.6582V4.6582H228.193V5.6582H229.193ZM229.193 29V30H230.193V29H229.193ZM218.468 29H217.468V30H218.468V29ZM218.468 4.6582H210.601V6.6582H218.468V4.6582ZM211.601 5.6582V1.40918H209.601V5.6582H211.601ZM210.601 2.40918H237.06V0.40918H210.601V2.40918ZM236.06 1.40918V5.6582H238.06V1.40918H236.06ZM237.06 4.6582H229.193V6.6582H237.06V4.6582ZM228.193 5.6582V29H230.193V5.6582H228.193ZM229.193 28H218.468V30H229.193V28ZM219.468 29V5.6582H217.468V29H219.468ZM248.712 8.38574L249.61 8.82649L249.819 8.40035L249.621 7.96884L248.712 8.38574ZM245.521 1.42773V0.427734H243.962L244.612 1.84464L245.521 1.42773ZM256.821 1.42773L257.719 0.988026L257.445 0.427734H256.821V1.42773ZM270.329 29.0186V30.0186H271.932L271.227 28.5788L270.329 29.0186ZM258.212 29.0186L257.305 29.4381L257.573 30.0186H258.212V29.0186ZM256.171 24.6025L257.079 24.183L256.811 23.6025H256.171V24.6025ZM245.298 24.6025V23.6025H244.657L244.389 24.1861L245.298 24.6025ZM243.276 29.0186V30.0186H243.918L244.185 29.4349L243.276 29.0186ZM238.582 29.0186L237.684 28.5778L236.977 30.0186H238.582V29.0186ZM254.223 20.3535V21.3535H255.785L255.131 19.935L254.223 20.3535ZM250.735 12.7832L251.643 12.3647L250.733 10.3884L249.826 12.3665L250.735 12.7832ZM247.265 20.3535L246.356 19.9369L245.707 21.3535H247.265V20.3535ZM249.621 7.96884L246.43 1.01083L244.612 1.84464L247.804 8.80265L249.621 7.96884ZM245.521 2.42773H256.821V0.427734H245.521V2.42773ZM255.923 1.86744L269.431 29.4583L271.227 28.5788L257.719 0.988026L255.923 1.86744ZM270.329 28.0186H258.212V30.0186H270.329V28.0186ZM259.12 28.599L257.079 24.183L255.264 25.0221L257.305 29.4381L259.12 28.599ZM256.171 23.6025H245.298V25.6025H256.171V23.6025ZM244.389 24.1861L242.367 28.6022L244.185 29.4349L246.208 25.0189L244.389 24.1861ZM243.276 28.0186H238.582V30.0186H243.276V28.0186ZM239.479 29.4593L249.61 8.82649L247.815 7.945L237.684 28.5778L239.479 29.4593ZM255.131 19.935L251.643 12.3647L249.827 13.2017L253.315 20.772L255.131 19.935ZM249.826 12.3665L246.356 19.9369L248.174 20.7702L251.644 13.1999L249.826 12.3665ZM247.265 21.3535H254.223V19.3535H247.265V21.3535Z" fill="#A72F04" mask="url(#path-1-outside-1_50_5973)"/>
</svg>
